<mxfile host="app.diagrams.net" agent="Mozilla/5.0 (Macintosh; Intel Mac OS X 10_15_7) AppleWebKit/537.36 (KHTML, like Gecko) Chrome/135.0.0.0 Safari/537.36" version="27.0.2">
  <diagram id="C5RBs43oDa-KdzZeNtuy" name="Page-1">
    <mxGraphModel dx="1426" dy="766" grid="1" gridSize="10" guides="1" tooltips="1" connect="1" arrows="1" fold="1" page="1" pageScale="1" pageWidth="827" pageHeight="1169" math="0" shadow="0">
      <root>
        <mxCell id="WIyWlLk6GJQsqaUBKTNV-0" />
        <mxCell id="WIyWlLk6GJQsqaUBKTNV-1" parent="WIyWlLk6GJQsqaUBKTNV-0" />
        <mxCell id="vwDwJntxZ7bZ2EkVoVXX-53" style="edgeStyle=orthogonalEdgeStyle;rounded=0;orthogonalLoop=1;jettySize=auto;html=1;exitX=1;exitY=0.5;exitDx=0;exitDy=0;entryX=0;entryY=0.5;entryDx=0;entryDy=0;" edge="1" parent="WIyWlLk6GJQsqaUBKTNV-1" source="vwDwJntxZ7bZ2EkVoVXX-54" target="vwDwJntxZ7bZ2EkVoVXX-56">
          <mxGeometry relative="1" as="geometry" />
        </mxCell>
        <mxCell id="vwDwJntxZ7bZ2EkVoVXX-54" value="未使用" style="ellipse;whiteSpace=wrap;html=1;" vertex="1" parent="WIyWlLk6GJQsqaUBKTNV-1">
          <mxGeometry x="90" y="170" width="120" height="80" as="geometry" />
        </mxCell>
        <mxCell id="vwDwJntxZ7bZ2EkVoVXX-55" value="" style="edgeStyle=orthogonalEdgeStyle;rounded=0;orthogonalLoop=1;jettySize=auto;html=1;" edge="1" parent="WIyWlLk6GJQsqaUBKTNV-1" source="vwDwJntxZ7bZ2EkVoVXX-56" target="vwDwJntxZ7bZ2EkVoVXX-60">
          <mxGeometry relative="1" as="geometry" />
        </mxCell>
        <mxCell id="vwDwJntxZ7bZ2EkVoVXX-56" value="预校验&lt;br&gt;&lt;span style=&quot;color: rgb(41, 42, 46); font-family: ui-sans-serif, -apple-system, &amp;quot;system-ui&amp;quot;, &amp;quot;Segoe UI&amp;quot;, Ubuntu, system-ui, &amp;quot;Helvetica Neue&amp;quot;, sans-serif; font-size: 16px; text-align: left; white-space-collapse: preserve; background-color: rgb(255, 255, 255);&quot;&gt;/reward/use/preValidate&lt;/span&gt;" style="rounded=1;whiteSpace=wrap;html=1;" vertex="1" parent="WIyWlLk6GJQsqaUBKTNV-1">
          <mxGeometry x="370" y="180" width="120" height="60" as="geometry" />
        </mxCell>
        <mxCell id="vwDwJntxZ7bZ2EkVoVXX-57" value="" style="edgeStyle=orthogonalEdgeStyle;rounded=0;orthogonalLoop=1;jettySize=auto;html=1;" edge="1" parent="WIyWlLk6GJQsqaUBKTNV-1" source="vwDwJntxZ7bZ2EkVoVXX-60" target="vwDwJntxZ7bZ2EkVoVXX-62">
          <mxGeometry relative="1" as="geometry" />
        </mxCell>
        <mxCell id="vwDwJntxZ7bZ2EkVoVXX-58" style="edgeStyle=orthogonalEdgeStyle;rounded=0;orthogonalLoop=1;jettySize=auto;html=1;exitX=1;exitY=0.5;exitDx=0;exitDy=0;entryX=0;entryY=0.5;entryDx=0;entryDy=0;" edge="1" parent="WIyWlLk6GJQsqaUBKTNV-1" source="vwDwJntxZ7bZ2EkVoVXX-60" target="vwDwJntxZ7bZ2EkVoVXX-67">
          <mxGeometry relative="1" as="geometry" />
        </mxCell>
        <mxCell id="vwDwJntxZ7bZ2EkVoVXX-59" value="" style="edgeStyle=orthogonalEdgeStyle;rounded=0;orthogonalLoop=1;jettySize=auto;html=1;" edge="1" parent="WIyWlLk6GJQsqaUBKTNV-1" source="vwDwJntxZ7bZ2EkVoVXX-60" target="vwDwJntxZ7bZ2EkVoVXX-70">
          <mxGeometry relative="1" as="geometry" />
        </mxCell>
        <mxCell id="vwDwJntxZ7bZ2EkVoVXX-60" value="校验通过" style="rhombus;whiteSpace=wrap;html=1;rounded=1;" vertex="1" parent="WIyWlLk6GJQsqaUBKTNV-1">
          <mxGeometry x="530" y="170" width="80" height="80" as="geometry" />
        </mxCell>
        <mxCell id="vwDwJntxZ7bZ2EkVoVXX-61" style="edgeStyle=orthogonalEdgeStyle;rounded=0;orthogonalLoop=1;jettySize=auto;html=1;exitX=1;exitY=0.5;exitDx=0;exitDy=0;entryX=0;entryY=0.5;entryDx=0;entryDy=0;" edge="1" parent="WIyWlLk6GJQsqaUBKTNV-1" source="vwDwJntxZ7bZ2EkVoVXX-62" target="vwDwJntxZ7bZ2EkVoVXX-64">
          <mxGeometry relative="1" as="geometry" />
        </mxCell>
        <mxCell id="vwDwJntxZ7bZ2EkVoVXX-62" value="错误码：800017" style="whiteSpace=wrap;html=1;rounded=1;" vertex="1" parent="WIyWlLk6GJQsqaUBKTNV-1">
          <mxGeometry x="650" y="180" width="120" height="60" as="geometry" />
        </mxCell>
        <mxCell id="vwDwJntxZ7bZ2EkVoVXX-63" style="edgeStyle=orthogonalEdgeStyle;rounded=0;orthogonalLoop=1;jettySize=auto;html=1;exitX=1;exitY=0.5;exitDx=0;exitDy=0;entryX=0;entryY=0.5;entryDx=0;entryDy=0;" edge="1" parent="WIyWlLk6GJQsqaUBKTNV-1" source="vwDwJntxZ7bZ2EkVoVXX-64" target="vwDwJntxZ7bZ2EkVoVXX-65">
          <mxGeometry relative="1" as="geometry" />
        </mxCell>
        <mxCell id="vwDwJntxZ7bZ2EkVoVXX-64" value="弹出&lt;br&gt;KYC验证提示弹窗" style="whiteSpace=wrap;html=1;rounded=1;" vertex="1" parent="WIyWlLk6GJQsqaUBKTNV-1">
          <mxGeometry x="810" y="180" width="120" height="60" as="geometry" />
        </mxCell>
        <mxCell id="vwDwJntxZ7bZ2EkVoVXX-65" value="跳转至&lt;br&gt;KYC验证页面" style="whiteSpace=wrap;html=1;rounded=1;" vertex="1" parent="WIyWlLk6GJQsqaUBKTNV-1">
          <mxGeometry x="1010" y="180" width="120" height="60" as="geometry" />
        </mxCell>
        <mxCell id="vwDwJntxZ7bZ2EkVoVXX-66" value="" style="edgeStyle=orthogonalEdgeStyle;rounded=0;orthogonalLoop=1;jettySize=auto;html=1;" edge="1" parent="WIyWlLk6GJQsqaUBKTNV-1" source="vwDwJntxZ7bZ2EkVoVXX-67" target="vwDwJntxZ7bZ2EkVoVXX-68">
          <mxGeometry relative="1" as="geometry" />
        </mxCell>
        <mxCell id="vwDwJntxZ7bZ2EkVoVXX-67" value="其他错误" style="whiteSpace=wrap;html=1;rounded=1;" vertex="1" parent="WIyWlLk6GJQsqaUBKTNV-1">
          <mxGeometry x="650" y="100" width="120" height="60" as="geometry" />
        </mxCell>
        <mxCell id="vwDwJntxZ7bZ2EkVoVXX-68" value="toast提示失败" style="whiteSpace=wrap;html=1;rounded=1;" vertex="1" parent="WIyWlLk6GJQsqaUBKTNV-1">
          <mxGeometry x="810" y="100" width="120" height="60" as="geometry" />
        </mxCell>
        <mxCell id="vwDwJntxZ7bZ2EkVoVXX-69" style="edgeStyle=orthogonalEdgeStyle;rounded=0;orthogonalLoop=1;jettySize=auto;html=1;exitX=1;exitY=0.5;exitDx=0;exitDy=0;entryX=0;entryY=0.5;entryDx=0;entryDy=0;" edge="1" parent="WIyWlLk6GJQsqaUBKTNV-1" source="vwDwJntxZ7bZ2EkVoVXX-70" target="vwDwJntxZ7bZ2EkVoVXX-73">
          <mxGeometry relative="1" as="geometry" />
        </mxCell>
        <mxCell id="vwDwJntxZ7bZ2EkVoVXX-70" value="使用卡券&lt;br&gt;&lt;span style=&quot;color: rgb(41, 42, 46); font-family: ui-sans-serif, -apple-system, &amp;quot;system-ui&amp;quot;, &amp;quot;Segoe UI&amp;quot;, Ubuntu, system-ui, &amp;quot;Helvetica Neue&amp;quot;, sans-serif; font-size: 16px; text-align: left; white-space-collapse: preserve; background-color: rgb(255, 255, 255);&quot;&gt;/reward/use&lt;/span&gt;" style="whiteSpace=wrap;html=1;rounded=1;" vertex="1" parent="WIyWlLk6GJQsqaUBKTNV-1">
          <mxGeometry x="510" y="340" width="120" height="60" as="geometry" />
        </mxCell>
        <mxCell id="vwDwJntxZ7bZ2EkVoVXX-71" value="使用" style="text;html=1;align=center;verticalAlign=middle;whiteSpace=wrap;rounded=0;" vertex="1" parent="WIyWlLk6GJQsqaUBKTNV-1">
          <mxGeometry x="230" y="180" width="60" height="30" as="geometry" />
        </mxCell>
        <mxCell id="vwDwJntxZ7bZ2EkVoVXX-72" style="edgeStyle=orthogonalEdgeStyle;rounded=0;orthogonalLoop=1;jettySize=auto;html=1;exitX=1;exitY=0.5;exitDx=0;exitDy=0;" edge="1" parent="WIyWlLk6GJQsqaUBKTNV-1" source="vwDwJntxZ7bZ2EkVoVXX-73" target="vwDwJntxZ7bZ2EkVoVXX-77">
          <mxGeometry relative="1" as="geometry" />
        </mxCell>
        <mxCell id="vwDwJntxZ7bZ2EkVoVXX-73" value="发奖中台&lt;br&gt;划账至理财账户&lt;br&gt;Kafka通知理财侧申购" style="whiteSpace=wrap;html=1;rounded=1;" vertex="1" parent="WIyWlLk6GJQsqaUBKTNV-1">
          <mxGeometry x="690" y="340" width="120" height="60" as="geometry" />
        </mxCell>
        <mxCell id="vwDwJntxZ7bZ2EkVoVXX-74" style="edgeStyle=orthogonalEdgeStyle;rounded=0;orthogonalLoop=1;jettySize=auto;html=1;exitX=0.5;exitY=0;exitDx=0;exitDy=0;entryX=0;entryY=0.5;entryDx=0;entryDy=0;shape=flexArrow;startArrow=block;dashed=1;width=10;endSize=4.67;fillColor=#dae8fc;gradientColor=#7ea6e0;strokeColor=#6c8ebf;" edge="1" parent="WIyWlLk6GJQsqaUBKTNV-1" source="vwDwJntxZ7bZ2EkVoVXX-73" target="vwDwJntxZ7bZ2EkVoVXX-98">
          <mxGeometry relative="1" as="geometry">
            <Array as="points">
              <mxPoint x="750" y="290" />
              <mxPoint x="1240" y="290" />
              <mxPoint x="1240" y="120" />
            </Array>
          </mxGeometry>
        </mxCell>
        <mxCell id="vwDwJntxZ7bZ2EkVoVXX-75" style="edgeStyle=orthogonalEdgeStyle;rounded=0;orthogonalLoop=1;jettySize=auto;html=1;exitX=1;exitY=0.5;exitDx=0;exitDy=0;entryX=0;entryY=0.5;entryDx=0;entryDy=0;" edge="1" parent="WIyWlLk6GJQsqaUBKTNV-1" source="vwDwJntxZ7bZ2EkVoVXX-77" target="vwDwJntxZ7bZ2EkVoVXX-80">
          <mxGeometry relative="1" as="geometry" />
        </mxCell>
        <mxCell id="vwDwJntxZ7bZ2EkVoVXX-76" style="edgeStyle=orthogonalEdgeStyle;rounded=0;orthogonalLoop=1;jettySize=auto;html=1;exitX=0.5;exitY=1;exitDx=0;exitDy=0;entryX=0.5;entryY=0;entryDx=0;entryDy=0;" edge="1" parent="WIyWlLk6GJQsqaUBKTNV-1" source="vwDwJntxZ7bZ2EkVoVXX-77" target="vwDwJntxZ7bZ2EkVoVXX-82">
          <mxGeometry relative="1" as="geometry" />
        </mxCell>
        <mxCell id="vwDwJntxZ7bZ2EkVoVXX-77" value="划账成功" style="rhombus;whiteSpace=wrap;html=1;rounded=1;" vertex="1" parent="WIyWlLk6GJQsqaUBKTNV-1">
          <mxGeometry x="850" y="330" width="80" height="80" as="geometry" />
        </mxCell>
        <mxCell id="vwDwJntxZ7bZ2EkVoVXX-78" value="否" style="text;html=1;align=center;verticalAlign=middle;whiteSpace=wrap;rounded=0;" vertex="1" parent="WIyWlLk6GJQsqaUBKTNV-1">
          <mxGeometry x="590" y="180" width="60" height="30" as="geometry" />
        </mxCell>
        <mxCell id="vwDwJntxZ7bZ2EkVoVXX-79" value="是" style="text;html=1;align=center;verticalAlign=middle;whiteSpace=wrap;rounded=0;" vertex="1" parent="WIyWlLk6GJQsqaUBKTNV-1">
          <mxGeometry x="570" y="260" width="60" height="30" as="geometry" />
        </mxCell>
        <mxCell id="vwDwJntxZ7bZ2EkVoVXX-80" value="提示&lt;br&gt;系统太忙了，请稍后重试" style="whiteSpace=wrap;html=1;rounded=1;" vertex="1" parent="WIyWlLk6GJQsqaUBKTNV-1">
          <mxGeometry x="1010" y="340" width="120" height="60" as="geometry" />
        </mxCell>
        <mxCell id="vwDwJntxZ7bZ2EkVoVXX-81" style="edgeStyle=orthogonalEdgeStyle;rounded=0;orthogonalLoop=1;jettySize=auto;html=1;exitX=1;exitY=0.5;exitDx=0;exitDy=0;entryX=0;entryY=0.5;entryDx=0;entryDy=0;" edge="1" parent="WIyWlLk6GJQsqaUBKTNV-1" source="vwDwJntxZ7bZ2EkVoVXX-82" target="vwDwJntxZ7bZ2EkVoVXX-87">
          <mxGeometry relative="1" as="geometry" />
        </mxCell>
        <mxCell id="vwDwJntxZ7bZ2EkVoVXX-82" value="弹出兑换成功弹窗&lt;br&gt;（带动画）" style="whiteSpace=wrap;html=1;rounded=1;" vertex="1" parent="WIyWlLk6GJQsqaUBKTNV-1">
          <mxGeometry x="830" y="450" width="120" height="60" as="geometry" />
        </mxCell>
        <mxCell id="vwDwJntxZ7bZ2EkVoVXX-83" value="否" style="text;html=1;align=center;verticalAlign=middle;whiteSpace=wrap;rounded=0;" vertex="1" parent="WIyWlLk6GJQsqaUBKTNV-1">
          <mxGeometry x="920" y="340" width="60" height="30" as="geometry" />
        </mxCell>
        <mxCell id="vwDwJntxZ7bZ2EkVoVXX-84" value="是" style="text;html=1;align=center;verticalAlign=middle;whiteSpace=wrap;rounded=0;" vertex="1" parent="WIyWlLk6GJQsqaUBKTNV-1">
          <mxGeometry x="880" y="410" width="60" height="30" as="geometry" />
        </mxCell>
        <mxCell id="vwDwJntxZ7bZ2EkVoVXX-85" value="&lt;h1 style=&quot;margin-top: 0px;&quot;&gt;理财空投金&lt;/h1&gt;" style="text;html=1;whiteSpace=wrap;overflow=hidden;rounded=0;" vertex="1" parent="WIyWlLk6GJQsqaUBKTNV-1">
          <mxGeometry x="90" y="10" width="180" height="60" as="geometry" />
        </mxCell>
        <mxCell id="vwDwJntxZ7bZ2EkVoVXX-86" value="手动确认" style="text;html=1;align=center;verticalAlign=middle;whiteSpace=wrap;rounded=0;" vertex="1" parent="WIyWlLk6GJQsqaUBKTNV-1">
          <mxGeometry x="940" y="180" width="60" height="30" as="geometry" />
        </mxCell>
        <mxCell id="vwDwJntxZ7bZ2EkVoVXX-87" value="跳转至&lt;br&gt;理财页面" style="whiteSpace=wrap;html=1;rounded=1;" vertex="1" parent="WIyWlLk6GJQsqaUBKTNV-1">
          <mxGeometry x="1010" y="450" width="120" height="60" as="geometry" />
        </mxCell>
        <mxCell id="vwDwJntxZ7bZ2EkVoVXX-88" value="点击查看" style="text;html=1;align=center;verticalAlign=middle;whiteSpace=wrap;rounded=0;" vertex="1" parent="WIyWlLk6GJQsqaUBKTNV-1">
          <mxGeometry x="950" y="450" width="60" height="30" as="geometry" />
        </mxCell>
        <mxCell id="vwDwJntxZ7bZ2EkVoVXX-89" style="edgeStyle=orthogonalEdgeStyle;rounded=0;orthogonalLoop=1;jettySize=auto;html=1;exitX=1;exitY=0.5;exitDx=0;exitDy=0;entryX=0.5;entryY=1;entryDx=0;entryDy=0;" edge="1" parent="WIyWlLk6GJQsqaUBKTNV-1" source="vwDwJntxZ7bZ2EkVoVXX-90" target="vwDwJntxZ7bZ2EkVoVXX-87">
          <mxGeometry relative="1" as="geometry" />
        </mxCell>
        <mxCell id="vwDwJntxZ7bZ2EkVoVXX-90" value="使用中" style="ellipse;whiteSpace=wrap;html=1;" vertex="1" parent="WIyWlLk6GJQsqaUBKTNV-1">
          <mxGeometry x="90" y="530" width="120" height="80" as="geometry" />
        </mxCell>
        <mxCell id="vwDwJntxZ7bZ2EkVoVXX-91" value="去查看" style="text;html=1;align=center;verticalAlign=middle;whiteSpace=wrap;rounded=0;" vertex="1" parent="WIyWlLk6GJQsqaUBKTNV-1">
          <mxGeometry x="230" y="540" width="60" height="30" as="geometry" />
        </mxCell>
        <mxCell id="vwDwJntxZ7bZ2EkVoVXX-92" style="edgeStyle=orthogonalEdgeStyle;rounded=0;orthogonalLoop=1;jettySize=auto;html=1;exitX=1;exitY=0.5;exitDx=0;exitDy=0;" edge="1" parent="WIyWlLk6GJQsqaUBKTNV-1" source="vwDwJntxZ7bZ2EkVoVXX-93">
          <mxGeometry relative="1" as="geometry">
            <mxPoint x="1070" y="510" as="targetPoint" />
          </mxGeometry>
        </mxCell>
        <mxCell id="vwDwJntxZ7bZ2EkVoVXX-93" value="已使用" style="ellipse;whiteSpace=wrap;html=1;" vertex="1" parent="WIyWlLk6GJQsqaUBKTNV-1">
          <mxGeometry x="90" y="650" width="120" height="80" as="geometry" />
        </mxCell>
        <mxCell id="vwDwJntxZ7bZ2EkVoVXX-94" value="去查看" style="text;html=1;align=center;verticalAlign=middle;whiteSpace=wrap;rounded=0;" vertex="1" parent="WIyWlLk6GJQsqaUBKTNV-1">
          <mxGeometry x="230" y="660" width="60" height="30" as="geometry" />
        </mxCell>
        <mxCell id="vwDwJntxZ7bZ2EkVoVXX-95" value="已过期" style="ellipse;whiteSpace=wrap;html=1;" vertex="1" parent="WIyWlLk6GJQsqaUBKTNV-1">
          <mxGeometry x="90" y="770" width="120" height="80" as="geometry" />
        </mxCell>
        <mxCell id="vwDwJntxZ7bZ2EkVoVXX-96" value="无操作" style="text;html=1;align=center;verticalAlign=middle;whiteSpace=wrap;rounded=0;" vertex="1" parent="WIyWlLk6GJQsqaUBKTNV-1">
          <mxGeometry x="230" y="780" width="60" height="30" as="geometry" />
        </mxCell>
        <mxCell id="vwDwJntxZ7bZ2EkVoVXX-97" style="edgeStyle=orthogonalEdgeStyle;rounded=0;orthogonalLoop=1;jettySize=auto;html=1;exitX=0.5;exitY=1;exitDx=0;exitDy=0;entryX=0.5;entryY=0;entryDx=0;entryDy=0;" edge="1" parent="WIyWlLk6GJQsqaUBKTNV-1" source="vwDwJntxZ7bZ2EkVoVXX-98" target="vwDwJntxZ7bZ2EkVoVXX-101">
          <mxGeometry relative="1" as="geometry" />
        </mxCell>
        <mxCell id="vwDwJntxZ7bZ2EkVoVXX-98" value="划账至个人理财账户" style="whiteSpace=wrap;html=1;rounded=1;" vertex="1" parent="WIyWlLk6GJQsqaUBKTNV-1">
          <mxGeometry x="1290" y="90" width="120" height="60" as="geometry" />
        </mxCell>
        <mxCell id="vwDwJntxZ7bZ2EkVoVXX-99" style="edgeStyle=orthogonalEdgeStyle;rounded=0;orthogonalLoop=1;jettySize=auto;html=1;exitX=0.5;exitY=1;exitDx=0;exitDy=0;entryX=0.5;entryY=0;entryDx=0;entryDy=0;" edge="1" parent="WIyWlLk6GJQsqaUBKTNV-1" source="vwDwJntxZ7bZ2EkVoVXX-101" target="vwDwJntxZ7bZ2EkVoVXX-102">
          <mxGeometry relative="1" as="geometry" />
        </mxCell>
        <mxCell id="vwDwJntxZ7bZ2EkVoVXX-100" style="edgeStyle=orthogonalEdgeStyle;rounded=0;orthogonalLoop=1;jettySize=auto;html=1;exitX=0;exitY=0.5;exitDx=0;exitDy=0;entryX=0.5;entryY=0;entryDx=0;entryDy=0;shape=flexArrow;dashed=1;fillColor=#b1ddf0;strokeColor=#10739e;" edge="1" parent="WIyWlLk6GJQsqaUBKTNV-1" source="vwDwJntxZ7bZ2EkVoVXX-102" target="vwDwJntxZ7bZ2EkVoVXX-73">
          <mxGeometry relative="1" as="geometry">
            <Array as="points">
              <mxPoint x="1240" y="320" />
              <mxPoint x="1240" y="290" />
              <mxPoint x="750" y="290" />
            </Array>
          </mxGeometry>
        </mxCell>
        <mxCell id="vwDwJntxZ7bZ2EkVoVXX-101" value="申购理财" style="whiteSpace=wrap;html=1;rounded=1;" vertex="1" parent="WIyWlLk6GJQsqaUBKTNV-1">
          <mxGeometry x="1290" y="190" width="120" height="60" as="geometry" />
        </mxCell>
        <mxCell id="vwDwJntxZ7bZ2EkVoVXX-102" value="Kafka通知发奖中台&lt;br&gt;申购成功" style="whiteSpace=wrap;html=1;rounded=1;" vertex="1" parent="WIyWlLk6GJQsqaUBKTNV-1">
          <mxGeometry x="1290" y="290" width="120" height="60" as="geometry" />
        </mxCell>
        <mxCell id="vwDwJntxZ7bZ2EkVoVXX-103" value="" style="endArrow=none;dashed=1;html=1;dashPattern=1 3;strokeWidth=2;rounded=0;" edge="1" parent="WIyWlLk6GJQsqaUBKTNV-1">
          <mxGeometry width="50" height="50" relative="1" as="geometry">
            <mxPoint x="1170" y="690" as="sourcePoint" />
            <mxPoint x="1170" y="50" as="targetPoint" />
          </mxGeometry>
        </mxCell>
        <mxCell id="vwDwJntxZ7bZ2EkVoVXX-104" value="&lt;h1 style=&quot;margin-top: 0px;&quot;&gt;理财侧&lt;/h1&gt;" style="text;html=1;whiteSpace=wrap;overflow=hidden;rounded=0;" vertex="1" parent="WIyWlLk6GJQsqaUBKTNV-1">
          <mxGeometry x="1180" y="60" width="180" height="60" as="geometry" />
        </mxCell>
        <mxCell id="vwDwJntxZ7bZ2EkVoVXX-105" value="&lt;h1 style=&quot;margin-top: 0px;&quot;&gt;发奖中台/卡券中心&lt;/h1&gt;" style="text;html=1;whiteSpace=wrap;overflow=hidden;rounded=0;" vertex="1" parent="WIyWlLk6GJQsqaUBKTNV-1">
          <mxGeometry x="370" y="50" width="230" height="60" as="geometry" />
        </mxCell>
      </root>
    </mxGraphModel>
  </diagram>
</mxfile>
